<?xml version="1.0" encoding="UTF-8"?>
<svg width="300" height="300" viewBox="0 0 300 300" xmlns="http://www.w3.org/2000/svg">
  <rect width="300" height="300" fill="#f8fafc"/>
  
  <!-- Lead-Acid Battery -->
  <rect x="75" y="75" width="70" height="100" rx="5" fill="#334155"/>
  <rect x="85" y="65" width="10" height="10" fill="#1e293b"/>
  <rect x="125" y="65" width="10" height="10" fill="#1e293b"/>
  <rect x="85" y="85" width="50" height="80" fill="#475569"/>
  <line x1="95" y1="95" x2="95" y2="155" stroke="#94a3b8" stroke-width="2"/>
  <line x1="110" y1="95" x2="110" y2="155" stroke="#94a3b8" stroke-width="2"/>
  <line x1="125" y1="95" x2="125" y2="155" stroke="#94a3b8" stroke-width="2"/>
  
  <!-- Lithium Battery -->
  <rect x="155" y="75" width="70" height="100" rx="5" fill="#0f766e"/>
  <rect x="165" y="65" width="10" height="10" fill="#0f766e"/>
  <rect x="205" y="65" width="10" height="10" fill="#0f766e"/>
  <rect x="165" y="85" width="50" height="80" fill="#14b8a6"/>
  <text x="190" y="125" font-family="Arial" font-size="12" fill="#ffffff" text-anchor="middle">Li-ion</text>
  <line x1="175" y1="135" x2="205" y2="135" stroke="#ffffff" stroke-width="2"/>
  <line x1="190" y1="120" x2="190" y2="150" stroke="#ffffff" stroke-width="2"/>
  
  <text x="150" y="200" font-family="Arial" font-size="16" fill="#334155" text-anchor="middle" font-weight="bold">Lead-Acid & Lithium Batteries</text>
  <rect x="90" y="210" width="120" height="5" rx="2" fill="#334155"/>
  <rect x="110" y="220" width="80" height="5" rx="2" fill="#334155"/>
</svg> 